<svg xmlns="http://www.w3.org/2000/svg" xmlns:xlink="http://www.w3.org/1999/xlink" viewBox="0 0 327 280.5"><defs><style>.cls-1{fill-rule:evenodd;}.cls-2{fill:url(#Unbenannter_Verlauf_29);}.cls-3{fill:url(#Unbenannter_Verlauf_29-2);}</style><radialGradient id="Unbenannter_Verlauf_29" cx="416.83" cy="204.83" fx="747.8107343463265" fy="181.15061719740098" r="532.06" gradientUnits="userSpaceOnUse"><stop offset="0.2" stop-color="#fff" stop-opacity="0.8"/><stop offset="0.28" stop-color="#f7f7f7" stop-opacity="0.81"/><stop offset="0.39" stop-color="#e0e0e0" stop-opacity="0.82"/><stop offset="0.51" stop-color="#bbb" stop-opacity="0.85"/><stop offset="0.65" stop-color="#878787" stop-opacity="0.89"/><stop offset="0.8" stop-color="#464646" stop-opacity="0.95"/><stop offset="0.94"/></radialGradient><radialGradient id="Unbenannter_Verlauf_29-2" cx="416.83" cy="204.83" fx="747.8222545925148" fy="181.15029426876248" r="532.07" xlink:href="#Unbenannter_Verlauf_29"/></defs><title>Element 2</title><g id="Ebene_2" data-name="Ebene 2"><g id="Ebene_1-2" data-name="Ebene 1"><path class="cls-1" d="M290.39,257.19,1.93.28A1.2,1.2,0,0,0,1.15,0h0A1.05,1.05,0,0,0,0,1V171a1,1,0,0,0,.3.69l90.3,86.9a1.13,1.13,0,0,0,.8.31H289.62a1.05,1.05,0,0,0,1.1-1A.94.94,0,0,0,290.39,257.19ZM44.93,164.41a2.47,2.47,0,0,1-2.58,2.34H14.09a2.47,2.47,0,0,1-2.58-2.34V152.9a2.47,2.47,0,0,1,2.58-2.35H42.35a2.47,2.47,0,0,1,2.58,2.35Zm0-25.66a2.47,2.47,0,0,1-2.58,2.35H14.09a2.47,2.47,0,0,1-2.58-2.35V127.24a2.47,2.47,0,0,1,2.58-2.34H42.35a2.47,2.47,0,0,1,2.58,2.34Zm0-25.65a2.47,2.47,0,0,1-2.58,2.34H14.09a2.47,2.47,0,0,1-2.58-2.34V101.59a2.47,2.47,0,0,1,2.58-2.35H42.35a2.47,2.47,0,0,1,2.58,2.35Zm0-25.66a2.47,2.47,0,0,1-2.58,2.35H14.09a2.47,2.47,0,0,1-2.58-2.35V75.93a2.47,2.47,0,0,1,2.58-2.34H42.35a2.47,2.47,0,0,1,2.58,2.34Zm0-25.65a2.47,2.47,0,0,1-2.58,2.34H14.09a2.47,2.47,0,0,1-2.58-2.34V50.28a2.47,2.47,0,0,1,2.58-2.35H42.35a2.47,2.47,0,0,1,2.58,2.35Z"/><path class="cls-2" d="M290.39,257.19,1.93.28A1.2,1.2,0,0,0,1.15,0h0A1.05,1.05,0,0,0,0,1V171a1,1,0,0,0,.3.69l90.3,86.9a1.13,1.13,0,0,0,.8.31H289.62a1.05,1.05,0,0,0,1.1-1A.94.94,0,0,0,290.39,257.19ZM44.93,164.41a2.47,2.47,0,0,1-2.58,2.34H14.09a2.47,2.47,0,0,1-2.58-2.34V152.9a2.47,2.47,0,0,1,2.58-2.35H42.35a2.47,2.47,0,0,1,2.58,2.35Zm0-25.66a2.47,2.47,0,0,1-2.58,2.35H14.09a2.47,2.47,0,0,1-2.58-2.35V127.24a2.47,2.47,0,0,1,2.58-2.34H42.35a2.47,2.47,0,0,1,2.58,2.34Zm0-25.65a2.47,2.47,0,0,1-2.58,2.34H14.09a2.47,2.47,0,0,1-2.58-2.34V101.59a2.47,2.47,0,0,1,2.58-2.35H42.35a2.47,2.47,0,0,1,2.58,2.35Zm0-25.66a2.47,2.47,0,0,1-2.58,2.35H14.09a2.47,2.47,0,0,1-2.58-2.35V75.93a2.47,2.47,0,0,1,2.58-2.34H42.35a2.47,2.47,0,0,1,2.58,2.34Zm0-25.65a2.47,2.47,0,0,1-2.58,2.34H14.09a2.47,2.47,0,0,1-2.58-2.34V50.28a2.47,2.47,0,0,1,2.58-2.35H42.35a2.47,2.47,0,0,1,2.58,2.35Z"/><path class="cls-1" d="M326.7,108.79,236.4,21.9a1.13,1.13,0,0,0-.8-.32H37.38a1.05,1.05,0,0,0-1.1,1,.92.92,0,0,0,.33.71L325.07,280.21a1.21,1.21,0,0,0,.78.29h0a1.05,1.05,0,0,0,1.1-1v-170A1,1,0,0,0,326.7,108.79ZM315.49,230.22a2.47,2.47,0,0,1-2.58,2.34H284.65a2.47,2.47,0,0,1-2.58-2.34V218.71a2.47,2.47,0,0,1,2.58-2.35h28.26a2.47,2.47,0,0,1,2.58,2.35Zm0-25.66a2.47,2.47,0,0,1-2.58,2.35H284.65a2.47,2.47,0,0,1-2.58-2.35V193.05a2.47,2.47,0,0,1,2.58-2.35h28.26a2.47,2.47,0,0,1,2.58,2.35Zm0-25.65a2.47,2.47,0,0,1-2.58,2.34H284.65a2.47,2.47,0,0,1-2.58-2.34V167.4a2.47,2.47,0,0,1,2.58-2.35h28.26a2.47,2.47,0,0,1,2.58,2.35Zm0-25.66a2.47,2.47,0,0,1-2.58,2.35H284.65a2.47,2.47,0,0,1-2.58-2.35V141.74a2.47,2.47,0,0,1,2.58-2.35h28.26a2.47,2.47,0,0,1,2.58,2.35Zm0-25.65a2.47,2.47,0,0,1-2.58,2.34H284.65a2.47,2.47,0,0,1-2.58-2.34V116.09a2.47,2.47,0,0,1,2.58-2.35h28.26a2.47,2.47,0,0,1,2.58,2.35Z"/><path class="cls-3" d="M326.7,108.79,236.4,21.9a1.13,1.13,0,0,0-.8-.32H37.38a1.05,1.05,0,0,0-1.1,1,.92.92,0,0,0,.33.71L325.07,280.21a1.21,1.21,0,0,0,.78.29h0a1.05,1.05,0,0,0,1.1-1v-170A1,1,0,0,0,326.7,108.79ZM315.49,230.22a2.47,2.47,0,0,1-2.58,2.34H284.65a2.47,2.47,0,0,1-2.58-2.34V218.71a2.47,2.47,0,0,1,2.58-2.35h28.26a2.47,2.47,0,0,1,2.58,2.35Zm0-25.66a2.47,2.47,0,0,1-2.58,2.35H284.65a2.47,2.47,0,0,1-2.58-2.35V193.05a2.47,2.47,0,0,1,2.58-2.35h28.26a2.47,2.47,0,0,1,2.58,2.35Zm0-25.65a2.47,2.47,0,0,1-2.58,2.34H284.65a2.47,2.47,0,0,1-2.58-2.34V167.4a2.47,2.47,0,0,1,2.58-2.35h28.26a2.47,2.47,0,0,1,2.58,2.35Zm0-25.66a2.47,2.47,0,0,1-2.58,2.35H284.65a2.47,2.47,0,0,1-2.58-2.35V141.74a2.47,2.47,0,0,1,2.58-2.35h28.26a2.47,2.47,0,0,1,2.58,2.35Zm0-25.65a2.47,2.47,0,0,1-2.58,2.34H284.65a2.47,2.47,0,0,1-2.58-2.34V116.09a2.47,2.47,0,0,1,2.58-2.35h28.26a2.47,2.47,0,0,1,2.58,2.35Z"/></g></g></svg>