<svg xmlns="http://www.w3.org/2000/svg" viewBox="0 0 328 281.5"><defs><style>.cls-1{fill:none;stroke:#000;stroke-miterlimit:10;}.cls-2{fill-rule:evenodd;}</style></defs><title>Element 1</title><g id="Ebene_2" data-name="Ebene 2"><g id="Ebene_1-2" data-name="Ebene 1"><path class="cls-1" d="M1.65.5h0a1.05,1.05,0,0,0-1.1,1v170a1,1,0,0,0,.3.69L91.1,259.1a1.13,1.13,0,0,0,.8.31H290.12a1.05,1.05,0,0,0,1.1-1h0a.94.94,0,0,0-.33-.72L2.43.79A1.16,1.16,0,0,0,1.65.5ZM45.43,164.91a2.47,2.47,0,0,1-2.58,2.35H14.59A2.47,2.47,0,0,1,12,164.91V153.4a2.47,2.47,0,0,1,2.58-2.35H42.85a2.47,2.47,0,0,1,2.58,2.35Zm0-25.65a2.47,2.47,0,0,1-2.58,2.34H14.59A2.47,2.47,0,0,1,12,139.26V127.75a2.47,2.47,0,0,1,2.58-2.35H42.85a2.47,2.47,0,0,1,2.58,2.35Zm0-25.66A2.47,2.47,0,0,1,42.85,116H14.59A2.47,2.47,0,0,1,12,113.6V102.09a2.47,2.47,0,0,1,2.58-2.35H42.85a2.47,2.47,0,0,1,2.58,2.35Zm0-25.65a2.47,2.47,0,0,1-2.58,2.34H14.59A2.47,2.47,0,0,1,12,88V76.44a2.47,2.47,0,0,1,2.58-2.35H42.85a2.47,2.47,0,0,1,2.58,2.35Zm0-25.66a2.47,2.47,0,0,1-2.58,2.35H14.59A2.47,2.47,0,0,1,12,62.29V50.78a2.47,2.47,0,0,1,2.58-2.35H42.85a2.47,2.47,0,0,1,2.58,2.35Z"/><path class="cls-2" d="M1.65.5h0a1.05,1.05,0,0,0-1.1,1v170a1,1,0,0,0,.3.69L91.1,259.1a1.13,1.13,0,0,0,.8.31H290.12a1.05,1.05,0,0,0,1.1-1h0a.94.94,0,0,0-.33-.72L2.43.79A1.16,1.16,0,0,0,1.65.5ZM45.43,164.91a2.47,2.47,0,0,1-2.58,2.35H14.59A2.47,2.47,0,0,1,12,164.91V153.4a2.47,2.47,0,0,1,2.58-2.35H42.85a2.47,2.47,0,0,1,2.58,2.35Zm0-25.65a2.47,2.47,0,0,1-2.58,2.34H14.59A2.47,2.47,0,0,1,12,139.26V127.75a2.47,2.47,0,0,1,2.58-2.35H42.85a2.47,2.47,0,0,1,2.58,2.35Zm0-25.66A2.47,2.47,0,0,1,42.85,116H14.59A2.47,2.47,0,0,1,12,113.6V102.09a2.47,2.47,0,0,1,2.58-2.35H42.85a2.47,2.47,0,0,1,2.58,2.35Zm0-25.65a2.47,2.47,0,0,1-2.58,2.34H14.59A2.47,2.47,0,0,1,12,88V76.44a2.47,2.47,0,0,1,2.58-2.35H42.85a2.47,2.47,0,0,1,2.58,2.35Zm0-25.66a2.47,2.47,0,0,1-2.58,2.35H14.59A2.47,2.47,0,0,1,12,62.29V50.78a2.47,2.47,0,0,1,2.58-2.35H42.85a2.47,2.47,0,0,1,2.58,2.35Z"/><path class="cls-1" d="M326.35,281h0a1.05,1.05,0,0,0,1.1-1V110a1,1,0,0,0-.3-.69L236.9,22.4a1.13,1.13,0,0,0-.8-.31H37.88a1.05,1.05,0,0,0-1.1,1h0a.94.94,0,0,0,.33.72l288.46,256.9A1.16,1.16,0,0,0,326.35,281ZM282.57,116.59a2.47,2.47,0,0,1,2.58-2.35h28.26a2.47,2.47,0,0,1,2.58,2.35V128.1a2.47,2.47,0,0,1-2.58,2.35H285.15a2.47,2.47,0,0,1-2.58-2.35Zm0,25.65a2.47,2.47,0,0,1,2.58-2.34h28.26a2.47,2.47,0,0,1,2.58,2.34v11.51a2.47,2.47,0,0,1-2.58,2.35H285.15a2.47,2.47,0,0,1-2.58-2.35Zm0,25.66a2.47,2.47,0,0,1,2.58-2.35h28.26A2.47,2.47,0,0,1,316,167.9v11.51a2.47,2.47,0,0,1-2.58,2.35H285.15a2.47,2.47,0,0,1-2.58-2.35Zm0,25.65a2.47,2.47,0,0,1,2.58-2.34h28.26a2.47,2.47,0,0,1,2.58,2.34v11.51a2.47,2.47,0,0,1-2.58,2.35H285.15a2.47,2.47,0,0,1-2.58-2.35Zm0,25.66a2.47,2.47,0,0,1,2.58-2.35h28.26a2.47,2.47,0,0,1,2.58,2.35v11.51a2.47,2.47,0,0,1-2.58,2.35H285.15a2.47,2.47,0,0,1-2.58-2.35Z"/><path class="cls-2" d="M326.35,281h0a1.05,1.05,0,0,0,1.1-1V110a1,1,0,0,0-.3-.69L236.9,22.4a1.13,1.13,0,0,0-.8-.31H37.88a1.05,1.05,0,0,0-1.1,1h0a.94.94,0,0,0,.33.72l288.46,256.9A1.16,1.16,0,0,0,326.35,281ZM282.57,116.59a2.47,2.47,0,0,1,2.58-2.35h28.26a2.47,2.47,0,0,1,2.58,2.35V128.1a2.47,2.47,0,0,1-2.58,2.35H285.15a2.47,2.47,0,0,1-2.58-2.35Zm0,25.65a2.47,2.47,0,0,1,2.58-2.34h28.26a2.47,2.47,0,0,1,2.58,2.34v11.51a2.47,2.47,0,0,1-2.58,2.35H285.15a2.47,2.47,0,0,1-2.58-2.35Zm0,25.66a2.47,2.47,0,0,1,2.58-2.35h28.26A2.47,2.47,0,0,1,316,167.9v11.51a2.47,2.47,0,0,1-2.58,2.35H285.15a2.47,2.47,0,0,1-2.58-2.35Zm0,25.65a2.47,2.47,0,0,1,2.58-2.34h28.26a2.47,2.47,0,0,1,2.58,2.34v11.51a2.47,2.47,0,0,1-2.58,2.35H285.15a2.47,2.47,0,0,1-2.58-2.35Zm0,25.66a2.47,2.47,0,0,1,2.58-2.35h28.26a2.47,2.47,0,0,1,2.58,2.35v11.51a2.47,2.47,0,0,1-2.58,2.35H285.15a2.47,2.47,0,0,1-2.58-2.35Z"/></g></g></svg>